<svg xmlns="http://www.w3.org/2000/svg" viewBox="0 0 1575.62 162.51" role="img" aria-label="Learning Today, Leading Tomorrow">
<title>Learning Today, Leading Tomorrow</title>
<g fill="currentColor">
  <path data-char="L" transform="translate(0.00 121.41) scale(0.112000 -0.112000)" d="M473 57Q498 14 498 -26Q498 -35 496.5 -42.5Q495 -50 493 -58Q476 -56 457.5 -55.0Q439 -54 419 -54Q395 -54 370.5 -55.5Q346 -57 316.0 -60.0Q286 -63 249.0 -68.0Q212 -73 163 -81Q140 -73 117.0 -49.5Q94 -26 74 7Q84 29 99.0 61.5Q114 94 134.0 140.5Q154 187 178.5 249.5Q203 312 231 394Q249 448 262.0 489.0Q275 530 285.5 568.5Q296 607 306.0 649.0Q316 691 328 746Q368 738 397.5 716.5Q427 695 454 655Q446 642 433.0 613.0Q420 584 402.5 542.5Q385 501 364.0 448.5Q343 396 320 336Q298 277 277.0 225.0Q256 173 239.5 131.0Q223 89 213.0 59.0Q203 29 203 14Q219 15 232.0 16.0Q245 17 259.0 19.5Q273 22 289.5 25.5Q306 29 329 35Q349 40 366.0 43.5Q383 47 399.5 49.5Q416 52 433.5 53.5Q451 55 473 57Z" />
  <path data-char="e" transform="translate(56.00 121.41) scale(0.112000 -0.112000)" d="M455 414Q451 352 433.0 307.5Q415 263 381.5 229.5Q348 196 300.0 169.0Q252 142 188 117Q188 111 187.5 104.5Q187 98 187 91Q187 78 189.0 64.0Q191 50 196.0 38.0Q201 26 210.0 18.5Q219 11 233 11Q260 11 286.0 23.0Q312 35 335.5 52.5Q359 70 379.5 90.5Q400 111 416 128Q426 119 433 111Q388 51 334.5 11.5Q281 -28 233 -39Q164 -31 125.5 11.5Q87 54 87 114Q87 155 98.5 197.5Q110 240 130.5 279.5Q151 319 178.5 354.0Q206 389 237.5 415.0Q269 441 302.5 456.0Q336 471 369 471Q415 465 455 414ZM386 381Q359 377 330.0 359.0Q301 341 275.5 311.0Q250 281 229.0 241.0Q208 201 196 155Q276 195 329.0 253.5Q382 312 386 381Z" />
  <path data-char="a" transform="translate(101.25 121.41) scale(0.112000 -0.112000)" d="M442 404Q452 404 465.5 400.5Q479 397 490.0 391.5Q501 386 508.5 380.0Q516 374 516 369Q496 327 479.0 284.5Q462 242 450.0 203.0Q438 164 431.5 130.0Q425 96 425 71Q425 43 431.0 24.5Q437 6 451 -2Q439 -10 420.0 -15.0Q401 -20 386 -20Q332 -20 332 54Q332 111 370 210Q350 164 324.0 123.5Q298 83 271.0 52.0Q244 21 216.5 1.5Q189 -18 166 -22Q129 -20 106.0 13.5Q83 47 83 99Q83 155 107.0 217.0Q131 279 168.5 332.0Q206 385 250.0 420.5Q294 456 335 458Q345 455 357.5 446.0Q370 437 381.5 425.0Q393 413 401.0 400.5Q409 388 410 379Q370 373 327.5 340.0Q285 307 250.5 260.5Q216 214 194.0 161.0Q172 108 172 62Q172 43 186 38Q215 44 253.0 87.5Q291 131 345 222Q355 240 367.5 262.0Q380 284 393.0 308.0Q406 332 418.5 356.5Q431 381 442 404Z" />
  <path data-char="r" transform="translate(153.89 121.41) scale(0.112000 -0.112000)" d="M73 20Q78 49 90.5 96.5Q103 144 120.0 197.5Q137 251 156.0 305.0Q175 359 193 402Q206 433 216.0 450.5Q226 468 238 480Q252 478 267.0 473.0Q282 468 296.0 461.0Q310 454 321.0 446.5Q332 439 338 432Q311 400 290.5 359.0Q270 318 249 254Q303 302 344.5 346.0Q386 390 422 444Q428 449 443 449Q457 449 470.0 444.5Q483 440 488 432Q470 384 470 337Q470 293 483 271Q482 265 469.5 248.0Q457 231 442 216Q415 230 394.0 254.5Q373 279 363 308Q316 275 283.0 243.5Q250 212 226.5 173.5Q203 135 186.5 85.0Q170 35 155 -34Q146 -33 133.5 -27.5Q121 -22 108.5 -14.0Q96 -6 86.0 3.0Q76 12 73 20Z" />
  <path data-char="n" transform="translate(199.02 121.41) scale(0.112000 -0.112000)" d="M259 485Q285 477 308.0 449.5Q331 422 342 389Q331 362 308.0 324.0Q285 286 262.0 246.5Q239 207 220.5 171.5Q202 136 199 113Q215 130 234.5 152.5Q254 175 272.5 197.5Q291 220 307.0 238.5Q323 257 332 266Q351 286 377.0 312.5Q403 339 431.5 362.5Q460 386 489.0 402.5Q518 419 542 419Q568 419 585.5 401.5Q603 384 613 365Q613 363 605.5 359.5Q598 356 584 340Q570 322 552.5 290.5Q535 259 518.5 222.5Q502 186 491.0 148.0Q480 110 480 79Q480 54 486.5 47.0Q493 40 505 40Q516 40 528.0 45.0Q540 50 547 50Q551 48 553.5 41.5Q556 35 556 30Q548 23 537.0 16.0Q526 9 514.0 3.0Q502 -3 490.5 -7.0Q479 -11 470 -11Q441 -11 422.5 -2.5Q404 6 393.5 20.0Q383 34 379.0 53.5Q375 73 375 95Q375 107 377.0 122.0Q379 137 385.0 157.5Q391 178 402.0 206.5Q413 235 430 275Q428 275 403.0 261.0Q378 247 349 218Q302 173 264.5 129.0Q227 85 188 31Q166 0 149.5 -21.5Q133 -43 121 -50Q100 -38 90.0 -16.5Q80 5 75 28Q75 47 80.5 76.0Q86 105 95.5 140.5Q105 176 119.0 215.0Q133 254 150 293Q188 381 219.5 431.0Q251 481 259 485Z" />
  <path data-char="i" transform="translate(259.50 121.41) scale(0.112000 -0.112000)" d="M98 67Q98 76 99.5 89.5Q101 103 105.0 125.5Q109 148 115.5 180.0Q122 212 132 257Q134 267 141.0 289.0Q148 311 159.5 335.5Q171 360 187.5 383.0Q204 406 227 417Q244 413 272.0 396.5Q300 380 320 351Q297 325 281.5 299.0Q266 273 253.5 245.0Q241 217 230.5 187.0Q220 157 207 124Q196 96 187.0 66.5Q178 37 177 15Q177 -3 176.5 -10.5Q176 -18 171 -18Q167 -18 155.0 -13.0Q143 -8 130.5 2.5Q118 13 108.0 29.0Q98 45 98 67ZM289 501Q289 507 292 519Q287 524 283.5 534.0Q280 544 280 552Q280 561 282.5 576.5Q285 592 289.0 610.0Q293 628 299.0 647.5Q305 667 311 683Q323 683 340.5 676.5Q358 670 376.0 659.5Q394 649 409.0 636.5Q424 624 432 613Q421 602 403.0 582.5Q385 563 368.0 541.5Q351 520 337.0 501.0Q323 482 319 474Q307 476 298.0 484.5Q289 493 289 501Z" />
  <path data-char="n" transform="translate(285.94 121.41) scale(0.112000 -0.112000)" d="M259 485Q285 477 308.0 449.5Q331 422 342 389Q331 362 308.0 324.0Q285 286 262.0 246.5Q239 207 220.5 171.5Q202 136 199 113Q215 130 234.5 152.5Q254 175 272.5 197.5Q291 220 307.0 238.5Q323 257 332 266Q351 286 377.0 312.5Q403 339 431.5 362.5Q460 386 489.0 402.5Q518 419 542 419Q568 419 585.5 401.5Q603 384 613 365Q613 363 605.5 359.5Q598 356 584 340Q570 322 552.5 290.5Q535 259 518.5 222.5Q502 186 491.0 148.0Q480 110 480 79Q480 54 486.5 47.0Q493 40 505 40Q516 40 528.0 45.0Q540 50 547 50Q551 48 553.5 41.5Q556 35 556 30Q548 23 537.0 16.0Q526 9 514.0 3.0Q502 -3 490.5 -7.0Q479 -11 470 -11Q441 -11 422.5 -2.5Q404 6 393.5 20.0Q383 34 379.0 53.5Q375 73 375 95Q375 107 377.0 122.0Q379 137 385.0 157.5Q391 178 402.0 206.5Q413 235 430 275Q428 275 403.0 261.0Q378 247 349 218Q302 173 264.5 129.0Q227 85 188 31Q166 0 149.5 -21.5Q133 -43 121 -50Q100 -38 90.0 -16.5Q80 5 75 28Q75 47 80.5 76.0Q86 105 95.5 140.5Q105 176 119.0 215.0Q133 254 150 293Q188 381 219.5 431.0Q251 481 259 485Z" />
  <path data-char="g" transform="translate(346.42 121.41) scale(0.112000 -0.112000)" d="M-105 -298Q-105 -292 -101.0 -287.0Q-97 -282 -92 -277Q-80 -288 -71.5 -294.0Q-63 -300 -55.5 -304.0Q-48 -308 -40.0 -309.0Q-32 -310 -21 -310Q31 -310 78.0 -282.5Q125 -255 166.5 -203.0Q208 -151 242.0 -76.0Q276 -1 302 94Q290 82 272.5 67.5Q255 53 236.0 40.0Q217 27 198.5 16.0Q180 5 167 0Q150 3 135.5 14.5Q121 26 110.0 43.0Q99 60 93.0 81.5Q87 103 87 127Q87 166 101.5 207.0Q116 248 140.0 287.5Q164 327 196.5 362.0Q229 397 265.5 423.0Q302 449 339.5 464.5Q377 480 413 480Q448 480 465.5 465.5Q483 451 491 416Q480 422 463 422Q439 422 407.5 403.0Q376 384 343.5 353.5Q311 323 279.0 283.5Q247 244 222.5 203.0Q198 162 182.5 123.0Q167 84 167 53Q167 46 168.0 44.5Q169 43 171 43Q180 43 195.5 53.0Q211 63 230.5 78.5Q250 94 271.0 114.5Q292 135 311 156Q354 204 389.5 263.5Q425 323 446 379Q473 377 494.0 370.0Q515 363 523 355Q489 277 468.5 224.0Q448 171 433 130Q406 58 382.5 -1.5Q359 -61 334.5 -111.5Q310 -162 281.5 -205.5Q253 -249 217 -289Q200 -308 178.5 -322.5Q157 -337 134.5 -347.0Q112 -357 90.5 -362.0Q69 -367 51 -367Q27 -367 2.0 -361.5Q-23 -356 -44.5 -346.5Q-66 -337 -82.0 -324.5Q-98 -312 -105 -298Z" />
  <path data-char="T" transform="translate(423.47 121.41) scale(0.112000 -0.112000)" d="M299 606Q259 606 237.5 628.5Q216 651 216 683Q216 691 218.5 702.0Q221 713 225 721Q238 715 263.5 712.5Q289 710 323 710Q374 710 438.5 714.5Q503 719 562.0 724.0Q621 729 666.0 733.5Q711 738 724 738Q761 738 777.5 710.5Q794 683 802 637Q776 639 750.5 640.5Q725 642 707 642Q675 642 642.5 640.0Q610 638 577 634Q563 605 546.0 565.5Q529 526 512.5 483.0Q496 440 481.0 397.5Q466 355 455 321Q433 255 416.5 199.0Q400 143 387.5 94.5Q375 46 366.0 2.0Q357 -42 350 -84Q283 -74 238 0Q246 31 257.5 67.5Q269 104 284.5 150.5Q300 197 321.0 256.0Q342 315 369 390Q379 418 390.0 448.5Q401 479 411.5 509.0Q422 539 430.5 567.0Q439 595 445 618Q403 613 365.5 609.5Q328 606 299 606Z" />
  <path data-char="o" transform="translate(489.33 121.41) scale(0.112000 -0.112000)" d="M215 -35Q158 -29 124.0 15.0Q90 59 90 127Q90 167 102.0 210.0Q114 253 136.0 293.5Q158 334 188.0 370.0Q218 406 253 432Q308 473 356 473Q388 456 419 402Q424 402 428.0 402.5Q432 403 437 403Q490 403 490 309Q490 246 469.5 189.5Q449 133 412.5 87.0Q376 41 325.5 9.5Q275 -22 215 -35ZM266 280Q249 257 234.0 230.0Q219 203 208.0 175.5Q197 148 191.0 122.5Q185 97 185 77Q185 53 193.0 31.0Q201 9 211 6Q256 16 293.5 43.5Q331 71 358.5 112.0Q386 153 401.5 205.0Q417 257 417 316Q417 342 414.0 357.0Q411 372 404 383Q360 370 325.5 341.0Q291 312 266 280Z" />
  <path data-char="d" transform="translate(538.72 121.41) scale(0.112000 -0.112000)" d="M315 467Q335 467 361.0 455.0Q387 443 407 424Q402 464 394.5 499.5Q387 535 372.5 573.0Q358 611 334.0 656.0Q310 701 274 759Q277 768 287.5 780.0Q298 792 311.5 802.5Q325 813 339.5 821.0Q354 829 367 831Q395 800 420.0 753.5Q445 707 464.0 653.5Q483 600 493.5 543.0Q504 486 504 434Q504 382 492.5 327.0Q481 272 460.5 219.5Q440 167 413.0 120.0Q386 73 354.5 36.0Q323 -1 289.0 -24.5Q255 -48 221 -54Q152 -46 115.5 -9.5Q79 27 79 91Q79 125 89.5 165.0Q100 205 117.5 244.5Q135 284 158.5 321.5Q182 359 208.5 389.0Q235 419 262.0 440.0Q289 461 315 467ZM213 -14Q248 -2 283.0 39.0Q318 80 346.0 135.5Q374 191 391.5 254.5Q409 318 409 377Q409 394 409.0 398.0Q409 402 408 406Q384 396 357.0 372.0Q330 348 303.0 316.5Q276 285 252.0 248.0Q228 211 209.0 174.0Q190 137 179.0 103.0Q168 69 168 43Q168 -7 213 -14Z" />
  <path data-char="a" transform="translate(587.22 121.41) scale(0.112000 -0.112000)" d="M442 404Q452 404 465.5 400.5Q479 397 490.0 391.5Q501 386 508.5 380.0Q516 374 516 369Q496 327 479.0 284.5Q462 242 450.0 203.0Q438 164 431.5 130.0Q425 96 425 71Q425 43 431.0 24.5Q437 6 451 -2Q439 -10 420.0 -15.0Q401 -20 386 -20Q332 -20 332 54Q332 111 370 210Q350 164 324.0 123.5Q298 83 271.0 52.0Q244 21 216.5 1.5Q189 -18 166 -22Q129 -20 106.0 13.5Q83 47 83 99Q83 155 107.0 217.0Q131 279 168.5 332.0Q206 385 250.0 420.5Q294 456 335 458Q345 455 357.5 446.0Q370 437 381.5 425.0Q393 413 401.0 400.5Q409 388 410 379Q370 373 327.5 340.0Q285 307 250.5 260.5Q216 214 194.0 161.0Q172 108 172 62Q172 43 186 38Q215 44 253.0 87.5Q291 131 345 222Q355 240 367.5 262.0Q380 284 393.0 308.0Q406 332 418.5 356.5Q431 381 442 404Z" />
  <path data-char="y" transform="translate(639.86 121.41) scale(0.112000 -0.112000)" d="M473 155Q450 82 427.0 22.0Q404 -38 378.0 -88.5Q352 -139 322.0 -181.5Q292 -224 256 -262Q210 -310 161.0 -335.5Q112 -361 63 -361Q38 -361 13.5 -355.5Q-11 -350 -32.5 -340.5Q-54 -331 -70.5 -318.5Q-87 -306 -94 -292Q-94 -280 -80 -271Q-68 -282 -60.0 -288.0Q-52 -294 -44.5 -298.0Q-37 -302 -28.5 -303.0Q-20 -304 -9 -304Q48 -304 102.5 -270.5Q157 -237 205.5 -175.5Q254 -114 294.0 -26.5Q334 61 362 169Q349 149 330.0 120.0Q311 91 288.0 62.5Q265 34 240.5 11.0Q216 -12 193 -20Q177 -19 159.5 -13.5Q142 -8 126.5 2.0Q111 12 99.0 26.0Q87 40 83 58Q83 87 85.0 104.5Q87 122 92 143Q101 181 118.5 229.0Q136 277 159.5 323.5Q183 370 211.5 410.5Q240 451 271 474Q279 474 291.0 472.5Q303 471 316.0 467.0Q329 463 341.0 457.5Q353 452 362 443Q351 433 314.0 376.0Q277 319 232 212Q227 201 220.0 180.0Q213 159 206.5 136.0Q200 113 195.0 91.0Q190 69 190 56Q190 48 192.5 44.0Q195 40 197 38Q215 41 245.0 67.5Q275 94 313 150Q337 186 357.0 221.5Q377 257 396.5 293.0Q416 329 437.0 367.0Q458 405 482 445Q495 445 510.0 442.0Q525 439 539.0 434.5Q553 430 563.5 424.5Q574 419 579 413Q548 347 521.0 284.0Q494 221 473 155Z" />
  <path data-char="," transform="translate(694.62 121.41) scale(0.112000 -0.112000)" d="M17 -169Q11 -164 6.0 -152.5Q1 -141 1 -131Q51 -88 72.5 -49.0Q94 -10 94 36Q94 66 91.5 87.5Q89 109 82 137Q107 135 131.5 128.5Q156 122 175.5 112.5Q195 103 208.0 90.5Q221 78 224 66Q177 -100 17 -169Z" />
  <path data-char="L" transform="translate(748.16 121.41) scale(0.112000 -0.112000)" d="M473 57Q498 14 498 -26Q498 -35 496.5 -42.5Q495 -50 493 -58Q476 -56 457.5 -55.0Q439 -54 419 -54Q395 -54 370.5 -55.5Q346 -57 316.0 -60.0Q286 -63 249.0 -68.0Q212 -73 163 -81Q140 -73 117.0 -49.5Q94 -26 74 7Q84 29 99.0 61.5Q114 94 134.0 140.5Q154 187 178.5 249.5Q203 312 231 394Q249 448 262.0 489.0Q275 530 285.5 568.5Q296 607 306.0 649.0Q316 691 328 746Q368 738 397.5 716.5Q427 695 454 655Q446 642 433.0 613.0Q420 584 402.5 542.5Q385 501 364.0 448.5Q343 396 320 336Q298 277 277.0 225.0Q256 173 239.5 131.0Q223 89 213.0 59.0Q203 29 203 14Q219 15 232.0 16.0Q245 17 259.0 19.5Q273 22 289.5 25.5Q306 29 329 35Q349 40 366.0 43.5Q383 47 399.5 49.5Q416 52 433.5 53.5Q451 55 473 57Z" />
  <path data-char="e" transform="translate(804.16 121.41) scale(0.112000 -0.112000)" d="M455 414Q451 352 433.0 307.5Q415 263 381.5 229.5Q348 196 300.0 169.0Q252 142 188 117Q188 111 187.5 104.5Q187 98 187 91Q187 78 189.0 64.0Q191 50 196.0 38.0Q201 26 210.0 18.5Q219 11 233 11Q260 11 286.0 23.0Q312 35 335.5 52.5Q359 70 379.5 90.5Q400 111 416 128Q426 119 433 111Q388 51 334.5 11.5Q281 -28 233 -39Q164 -31 125.5 11.5Q87 54 87 114Q87 155 98.5 197.5Q110 240 130.5 279.5Q151 319 178.5 354.0Q206 389 237.5 415.0Q269 441 302.5 456.0Q336 471 369 471Q415 465 455 414ZM386 381Q359 377 330.0 359.0Q301 341 275.5 311.0Q250 281 229.0 241.0Q208 201 196 155Q276 195 329.0 253.5Q382 312 386 381Z" />
  <path data-char="a" transform="translate(849.41 121.41) scale(0.112000 -0.112000)" d="M442 404Q452 404 465.5 400.5Q479 397 490.0 391.5Q501 386 508.5 380.0Q516 374 516 369Q496 327 479.0 284.5Q462 242 450.0 203.0Q438 164 431.5 130.0Q425 96 425 71Q425 43 431.0 24.5Q437 6 451 -2Q439 -10 420.0 -15.0Q401 -20 386 -20Q332 -20 332 54Q332 111 370 210Q350 164 324.0 123.5Q298 83 271.0 52.0Q244 21 216.5 1.5Q189 -18 166 -22Q129 -20 106.0 13.5Q83 47 83 99Q83 155 107.0 217.0Q131 279 168.5 332.0Q206 385 250.0 420.5Q294 456 335 458Q345 455 357.5 446.0Q370 437 381.5 425.0Q393 413 401.0 400.5Q409 388 410 379Q370 373 327.5 340.0Q285 307 250.5 260.5Q216 214 194.0 161.0Q172 108 172 62Q172 43 186 38Q215 44 253.0 87.5Q291 131 345 222Q355 240 367.5 262.0Q380 284 393.0 308.0Q406 332 418.5 356.5Q431 381 442 404Z" />
  <path data-char="d" transform="translate(902.05 121.41) scale(0.112000 -0.112000)" d="M315 467Q335 467 361.0 455.0Q387 443 407 424Q402 464 394.5 499.5Q387 535 372.5 573.0Q358 611 334.0 656.0Q310 701 274 759Q277 768 287.5 780.0Q298 792 311.5 802.5Q325 813 339.5 821.0Q354 829 367 831Q395 800 420.0 753.5Q445 707 464.0 653.5Q483 600 493.5 543.0Q504 486 504 434Q504 382 492.5 327.0Q481 272 460.5 219.5Q440 167 413.0 120.0Q386 73 354.5 36.0Q323 -1 289.0 -24.5Q255 -48 221 -54Q152 -46 115.5 -9.5Q79 27 79 91Q79 125 89.5 165.0Q100 205 117.5 244.5Q135 284 158.5 321.5Q182 359 208.5 389.0Q235 419 262.0 440.0Q289 461 315 467ZM213 -14Q248 -2 283.0 39.0Q318 80 346.0 135.5Q374 191 391.5 254.5Q409 318 409 377Q409 394 409.0 398.0Q409 402 408 406Q384 396 357.0 372.0Q330 348 303.0 316.5Q276 285 252.0 248.0Q228 211 209.0 174.0Q190 137 179.0 103.0Q168 69 168 43Q168 -7 213 -14Z" />
  <path data-char="i" transform="translate(950.54 121.41) scale(0.112000 -0.112000)" d="M98 67Q98 76 99.5 89.5Q101 103 105.0 125.5Q109 148 115.5 180.0Q122 212 132 257Q134 267 141.0 289.0Q148 311 159.5 335.5Q171 360 187.5 383.0Q204 406 227 417Q244 413 272.0 396.5Q300 380 320 351Q297 325 281.5 299.0Q266 273 253.5 245.0Q241 217 230.5 187.0Q220 157 207 124Q196 96 187.0 66.5Q178 37 177 15Q177 -3 176.5 -10.5Q176 -18 171 -18Q167 -18 155.0 -13.0Q143 -8 130.5 2.5Q118 13 108.0 29.0Q98 45 98 67ZM289 501Q289 507 292 519Q287 524 283.5 534.0Q280 544 280 552Q280 561 282.5 576.5Q285 592 289.0 610.0Q293 628 299.0 647.5Q305 667 311 683Q323 683 340.5 676.5Q358 670 376.0 659.5Q394 649 409.0 636.5Q424 624 432 613Q421 602 403.0 582.5Q385 563 368.0 541.5Q351 520 337.0 501.0Q323 482 319 474Q307 476 298.0 484.5Q289 493 289 501Z" />
  <path data-char="n" transform="translate(976.98 121.41) scale(0.112000 -0.112000)" d="M259 485Q285 477 308.0 449.5Q331 422 342 389Q331 362 308.0 324.0Q285 286 262.0 246.5Q239 207 220.5 171.5Q202 136 199 113Q215 130 234.5 152.5Q254 175 272.5 197.5Q291 220 307.0 238.5Q323 257 332 266Q351 286 377.0 312.5Q403 339 431.5 362.5Q460 386 489.0 402.5Q518 419 542 419Q568 419 585.5 401.5Q603 384 613 365Q613 363 605.5 359.5Q598 356 584 340Q570 322 552.5 290.5Q535 259 518.5 222.5Q502 186 491.0 148.0Q480 110 480 79Q480 54 486.5 47.0Q493 40 505 40Q516 40 528.0 45.0Q540 50 547 50Q551 48 553.5 41.5Q556 35 556 30Q548 23 537.0 16.0Q526 9 514.0 3.0Q502 -3 490.5 -7.0Q479 -11 470 -11Q441 -11 422.5 -2.5Q404 6 393.5 20.0Q383 34 379.0 53.5Q375 73 375 95Q375 107 377.0 122.0Q379 137 385.0 157.5Q391 178 402.0 206.5Q413 235 430 275Q428 275 403.0 261.0Q378 247 349 218Q302 173 264.5 129.0Q227 85 188 31Q166 0 149.5 -21.5Q133 -43 121 -50Q100 -38 90.0 -16.5Q80 5 75 28Q75 47 80.5 76.0Q86 105 95.5 140.5Q105 176 119.0 215.0Q133 254 150 293Q188 381 219.5 431.0Q251 481 259 485Z" />
  <path data-char="g" transform="translate(1037.46 121.41) scale(0.112000 -0.112000)" d="M-105 -298Q-105 -292 -101.0 -287.0Q-97 -282 -92 -277Q-80 -288 -71.5 -294.0Q-63 -300 -55.5 -304.0Q-48 -308 -40.0 -309.0Q-32 -310 -21 -310Q31 -310 78.0 -282.5Q125 -255 166.5 -203.0Q208 -151 242.0 -76.0Q276 -1 302 94Q290 82 272.5 67.5Q255 53 236.0 40.0Q217 27 198.5 16.0Q180 5 167 0Q150 3 135.5 14.5Q121 26 110.0 43.0Q99 60 93.0 81.5Q87 103 87 127Q87 166 101.5 207.0Q116 248 140.0 287.5Q164 327 196.5 362.0Q229 397 265.5 423.0Q302 449 339.5 464.5Q377 480 413 480Q448 480 465.5 465.5Q483 451 491 416Q480 422 463 422Q439 422 407.5 403.0Q376 384 343.5 353.5Q311 323 279.0 283.5Q247 244 222.5 203.0Q198 162 182.5 123.0Q167 84 167 53Q167 46 168.0 44.5Q169 43 171 43Q180 43 195.5 53.0Q211 63 230.5 78.5Q250 94 271.0 114.5Q292 135 311 156Q354 204 389.5 263.5Q425 323 446 379Q473 377 494.0 370.0Q515 363 523 355Q489 277 468.5 224.0Q448 171 433 130Q406 58 382.5 -1.5Q359 -61 334.5 -111.5Q310 -162 281.5 -205.5Q253 -249 217 -289Q200 -308 178.5 -322.5Q157 -337 134.5 -347.0Q112 -357 90.5 -362.0Q69 -367 51 -367Q27 -367 2.0 -361.5Q-23 -356 -44.5 -346.5Q-66 -337 -82.0 -324.5Q-98 -312 -105 -298Z" />
  <path data-char="T" transform="translate(1114.51 121.41) scale(0.112000 -0.112000)" d="M299 606Q259 606 237.5 628.5Q216 651 216 683Q216 691 218.5 702.0Q221 713 225 721Q238 715 263.5 712.5Q289 710 323 710Q374 710 438.5 714.5Q503 719 562.0 724.0Q621 729 666.0 733.5Q711 738 724 738Q761 738 777.5 710.5Q794 683 802 637Q776 639 750.5 640.5Q725 642 707 642Q675 642 642.5 640.0Q610 638 577 634Q563 605 546.0 565.5Q529 526 512.5 483.0Q496 440 481.0 397.5Q466 355 455 321Q433 255 416.5 199.0Q400 143 387.5 94.5Q375 46 366.0 2.0Q357 -42 350 -84Q283 -74 238 0Q246 31 257.5 67.5Q269 104 284.5 150.5Q300 197 321.0 256.0Q342 315 369 390Q379 418 390.0 448.5Q401 479 411.5 509.0Q422 539 430.5 567.0Q439 595 445 618Q403 613 365.5 609.5Q328 606 299 606Z" />
  <path data-char="o" transform="translate(1180.37 121.41) scale(0.112000 -0.112000)" d="M215 -35Q158 -29 124.0 15.0Q90 59 90 127Q90 167 102.0 210.0Q114 253 136.0 293.5Q158 334 188.0 370.0Q218 406 253 432Q308 473 356 473Q388 456 419 402Q424 402 428.0 402.5Q432 403 437 403Q490 403 490 309Q490 246 469.5 189.5Q449 133 412.5 87.0Q376 41 325.5 9.5Q275 -22 215 -35ZM266 280Q249 257 234.0 230.0Q219 203 208.0 175.5Q197 148 191.0 122.5Q185 97 185 77Q185 53 193.0 31.0Q201 9 211 6Q256 16 293.5 43.5Q331 71 358.5 112.0Q386 153 401.5 205.0Q417 257 417 316Q417 342 414.0 357.0Q411 372 404 383Q360 370 325.5 341.0Q291 312 266 280Z" />
  <path data-char="m" transform="translate(1229.76 121.41) scale(0.112000 -0.112000)" d="M675 307Q659 306 636.0 286.5Q613 267 586.5 236.5Q560 206 531.5 169.0Q503 132 476.5 95.5Q450 59 427.0 27.0Q404 -5 388 -24Q366 -15 350.0 2.5Q334 20 327 46Q332 77 341.0 110.5Q350 144 364.5 180.0Q379 216 400.5 255.5Q422 295 453 339Q438 338 412.0 317.5Q386 297 356.0 264.5Q326 232 294.0 191.5Q262 151 234 112Q197 60 172.5 21.0Q148 -18 137 -25Q111 -6 101.0 16.0Q91 38 86 65Q87 89 93.5 125.0Q100 161 112 199Q135 272 171.5 344.0Q208 416 242 476Q270 470 292.5 457.0Q315 444 340 419Q330 388 309.0 353.5Q288 319 265.0 281.0Q242 243 223.0 203.0Q204 163 198 122Q226 162 264.5 214.0Q303 266 343.5 312.0Q384 358 424.0 390.0Q464 422 496 422Q508 422 522.0 418.0Q536 414 548.0 408.0Q560 402 568.0 396.5Q576 391 577 388Q572 368 553.5 333.5Q535 299 514.0 261.0Q493 223 475.0 187.5Q457 152 454 131Q503 198 546.0 252.5Q589 307 627.0 346.0Q665 385 697.5 406.0Q730 427 759 427Q779 427 796.5 416.5Q814 406 821 386Q812 356 791.5 314.0Q771 272 750.0 225.5Q729 179 712.5 134.0Q696 89 696 53Q696 32 702.0 25.5Q708 19 719 19Q731 19 741.5 23.5Q752 28 757 28Q763 24 764.0 18.0Q765 12 765 7Q745 -9 724.0 -19.5Q703 -30 677 -30Q653 -30 637.5 -22.0Q622 -14 612.0 0.0Q602 14 598.0 32.0Q594 50 594 71Q594 105 603.0 138.5Q612 172 624.5 202.5Q637 233 651.0 259.5Q665 286 675 307Z" />
  <path data-char="o" transform="translate(1315.44 121.41) scale(0.112000 -0.112000)" d="M215 -35Q158 -29 124.0 15.0Q90 59 90 127Q90 167 102.0 210.0Q114 253 136.0 293.5Q158 334 188.0 370.0Q218 406 253 432Q308 473 356 473Q388 456 419 402Q424 402 428.0 402.5Q432 403 437 403Q490 403 490 309Q490 246 469.5 189.5Q449 133 412.5 87.0Q376 41 325.5 9.5Q275 -22 215 -35ZM266 280Q249 257 234.0 230.0Q219 203 208.0 175.5Q197 148 191.0 122.5Q185 97 185 77Q185 53 193.0 31.0Q201 9 211 6Q256 16 293.5 43.5Q331 71 358.5 112.0Q386 153 401.5 205.0Q417 257 417 316Q417 342 414.0 357.0Q411 372 404 383Q360 370 325.5 341.0Q291 312 266 280Z" />
  <path data-char="r" transform="translate(1364.83 121.41) scale(0.112000 -0.112000)" d="M73 20Q78 49 90.5 96.5Q103 144 120.0 197.5Q137 251 156.0 305.0Q175 359 193 402Q206 433 216.0 450.5Q226 468 238 480Q252 478 267.0 473.0Q282 468 296.0 461.0Q310 454 321.0 446.5Q332 439 338 432Q311 400 290.5 359.0Q270 318 249 254Q303 302 344.5 346.0Q386 390 422 444Q428 449 443 449Q457 449 470.0 444.5Q483 440 488 432Q470 384 470 337Q470 293 483 271Q482 265 469.5 248.0Q457 231 442 216Q415 230 394.0 254.5Q373 279 363 308Q316 275 283.0 243.5Q250 212 226.5 173.5Q203 135 186.5 85.0Q170 35 155 -34Q146 -33 133.5 -27.5Q121 -22 108.5 -14.0Q96 -6 86.0 3.0Q76 12 73 20Z" />
  <path data-char="r" transform="translate(1409.97 121.41) scale(0.112000 -0.112000)" d="M73 20Q78 49 90.5 96.5Q103 144 120.0 197.5Q137 251 156.0 305.0Q175 359 193 402Q206 433 216.0 450.5Q226 468 238 480Q252 478 267.0 473.0Q282 468 296.0 461.0Q310 454 321.0 446.5Q332 439 338 432Q311 400 290.5 359.0Q270 318 249 254Q303 302 344.5 346.0Q386 390 422 444Q428 449 443 449Q457 449 470.0 444.5Q483 440 488 432Q470 384 470 337Q470 293 483 271Q482 265 469.5 248.0Q457 231 442 216Q415 230 394.0 254.5Q373 279 363 308Q316 275 283.0 243.5Q250 212 226.5 173.5Q203 135 186.5 85.0Q170 35 155 -34Q146 -33 133.5 -27.5Q121 -22 108.5 -14.0Q96 -6 86.0 3.0Q76 12 73 20Z" />
  <path data-char="o" transform="translate(1455.10 121.41) scale(0.112000 -0.112000)" d="M215 -35Q158 -29 124.0 15.0Q90 59 90 127Q90 167 102.0 210.0Q114 253 136.0 293.5Q158 334 188.0 370.0Q218 406 253 432Q308 473 356 473Q388 456 419 402Q424 402 428.0 402.5Q432 403 437 403Q490 403 490 309Q490 246 469.5 189.5Q449 133 412.5 87.0Q376 41 325.5 9.5Q275 -22 215 -35ZM266 280Q249 257 234.0 230.0Q219 203 208.0 175.5Q197 148 191.0 122.5Q185 97 185 77Q185 53 193.0 31.0Q201 9 211 6Q256 16 293.5 43.5Q331 71 358.5 112.0Q386 153 401.5 205.0Q417 257 417 316Q417 342 414.0 357.0Q411 372 404 383Q360 370 325.5 341.0Q291 312 266 280Z" />
  <path data-char="w" transform="translate(1504.50 121.41) scale(0.112000 -0.112000)" d="M106 41Q106 61 110.5 97.0Q115 133 122.5 175.0Q130 217 139.5 261.0Q149 305 159 340Q172 387 199.5 412.5Q227 438 268 438Q290 438 311.5 431.0Q333 424 337 413Q308 389 290.5 353.5Q273 318 262.5 277.5Q252 237 246.5 194.5Q241 152 235 115Q268 159 297.5 194.5Q327 230 350 251Q381 280 392.0 299.5Q403 319 411 342Q417 360 425.5 384.0Q434 408 454 428Q458 429 471 429Q481 429 492.5 428.0Q504 427 514.0 424.0Q524 421 531.0 417.0Q538 413 539 407Q523 386 509.0 341.5Q495 297 484.0 244.0Q473 191 464.0 138.5Q455 86 448 50Q452 52 466.0 66.0Q480 80 497.5 101.0Q515 122 534.5 147.0Q554 172 569 196Q588 225 600.5 250.5Q613 276 622.5 305.0Q632 334 640.0 369.5Q648 405 657 454Q663 462 683.5 467.5Q704 473 721 473Q736 473 743 468Q738 412 724.5 368.0Q711 324 688.0 282.5Q665 241 631.0 199.5Q597 158 551 109Q532 89 509.5 65.0Q487 41 465.5 20.5Q444 0 425.5 -14.0Q407 -28 397 -28Q374 -28 359.0 -10.0Q344 8 344 36Q344 65 346.5 86.5Q349 108 355 132Q361 154 364.5 169.0Q368 184 370.5 195.0Q373 206 374.0 214.0Q375 222 376 230Q368 226 355.0 213.5Q342 201 328.0 184.5Q314 168 300.0 151.0Q286 134 277 122Q258 96 244.0 76.0Q230 56 217.5 38.0Q205 20 193.0 1.5Q181 -17 165 -38Q133 -28 119.5 -8.0Q106 12 106 41Z" />
</g>
</svg>
